<?xml version="1.0" encoding="UTF-8"?>
<svg xmlns="http://www.w3.org/2000/svg" id="arrow-circle-down" viewBox="0 0 24 24" width="512" height="512"><path d="M23,9.545,20.57,7.07a1.5,1.5,0,1,0-2.14,2.1l1.3,1.327H13.5V4.266l1.327,1.3a1.5,1.5,0,1,0,2.1-2.14L14.458,1a3.5,3.5,0,0,0-2.444-1H12A3.493,3.493,0,0,0,9.545,1L7.07,3.43a1.5,1.5,0,1,0,2.1,2.14L10.5,4.265V10.5H4.266l1.3-1.327a1.5,1.5,0,1,0-2.14-2.1L1,9.542a3.5,3.5,0,0,0-1,2.444V12H0a3.493,3.493,0,0,0,1,2.454L3.43,16.93a1.5,1.5,0,1,0,2.14-2.1L4.265,13.5H10.5v6.239l-1.327-1.3a1.5,1.5,0,1,0-2.1,2.14l2.472,2.43a3.521,3.521,0,0,0,4.913,0l2.475-2.433a1.5,1.5,0,1,0-2.1-2.14l-1.327,1.3V13.5h6.234l-1.3,1.327a1.5,1.5,0,1,0,2.14,2.1L23,14.458a3.521,3.521,0,0,0,0-4.913Z"/></svg>
